<mxfile host="app.diagrams.net" modified="2022-04-22T09:03:01.594Z" agent="5.0 (Windows NT 6.1; Win64; x64) AppleWebKit/537.36 (KHTML, like Gecko) Chrome/100.0.4896.88 Safari/537.36" etag="ZvBLyNnRCzmlu_BjlLwJ" version="17.4.6" type="github">
  <diagram id="C5RBs43oDa-KdzZeNtuy" name="Page-1">
    <mxGraphModel dx="758" dy="763" grid="1" gridSize="10" guides="1" tooltips="1" connect="1" arrows="1" fold="1" page="1" pageScale="1" pageWidth="827" pageHeight="1169" math="0" shadow="0">
      <root>
        <mxCell id="WIyWlLk6GJQsqaUBKTNV-0" />
        <mxCell id="WIyWlLk6GJQsqaUBKTNV-1" parent="WIyWlLk6GJQsqaUBKTNV-0" />
        <mxCell id="VEmv5C5mCchphOpSGsbX-2" style="edgeStyle=orthogonalEdgeStyle;rounded=0;orthogonalLoop=1;jettySize=auto;html=1;entryX=0.5;entryY=0;entryDx=0;entryDy=0;" edge="1" parent="WIyWlLk6GJQsqaUBKTNV-1" source="VEmv5C5mCchphOpSGsbX-0" target="VEmv5C5mCchphOpSGsbX-1">
          <mxGeometry relative="1" as="geometry" />
        </mxCell>
        <mxCell id="VEmv5C5mCchphOpSGsbX-0" value="输入资讯平台网址" style="rounded=1;whiteSpace=wrap;html=1;" vertex="1" parent="WIyWlLk6GJQsqaUBKTNV-1">
          <mxGeometry x="344" y="345" width="120" height="30" as="geometry" />
        </mxCell>
        <mxCell id="VEmv5C5mCchphOpSGsbX-4" style="edgeStyle=orthogonalEdgeStyle;rounded=0;orthogonalLoop=1;jettySize=auto;html=1;entryX=0.5;entryY=0;entryDx=0;entryDy=0;" edge="1" parent="WIyWlLk6GJQsqaUBKTNV-1" source="VEmv5C5mCchphOpSGsbX-1">
          <mxGeometry relative="1" as="geometry">
            <mxPoint x="404" y="495" as="targetPoint" />
          </mxGeometry>
        </mxCell>
        <mxCell id="VEmv5C5mCchphOpSGsbX-1" value="匹配路由" style="rounded=0;whiteSpace=wrap;html=1;" vertex="1" parent="WIyWlLk6GJQsqaUBKTNV-1">
          <mxGeometry x="359" y="425" width="90" height="30" as="geometry" />
        </mxCell>
        <mxCell id="VEmv5C5mCchphOpSGsbX-8" style="edgeStyle=orthogonalEdgeStyle;rounded=0;orthogonalLoop=1;jettySize=auto;html=1;entryX=0.5;entryY=0;entryDx=0;entryDy=0;" edge="1" parent="WIyWlLk6GJQsqaUBKTNV-1" source="VEmv5C5mCchphOpSGsbX-5" target="VEmv5C5mCchphOpSGsbX-6">
          <mxGeometry relative="1" as="geometry" />
        </mxCell>
        <mxCell id="VEmv5C5mCchphOpSGsbX-24" style="edgeStyle=orthogonalEdgeStyle;rounded=0;orthogonalLoop=1;jettySize=auto;html=1;entryX=1;entryY=0.5;entryDx=0;entryDy=0;" edge="1" parent="WIyWlLk6GJQsqaUBKTNV-1" source="VEmv5C5mCchphOpSGsbX-5" target="VEmv5C5mCchphOpSGsbX-0">
          <mxGeometry relative="1" as="geometry">
            <Array as="points">
              <mxPoint x="484" y="520" />
              <mxPoint x="484" y="360" />
            </Array>
          </mxGeometry>
        </mxCell>
        <mxCell id="VEmv5C5mCchphOpSGsbX-5" value="路由匹配成功" style="rhombus;whiteSpace=wrap;html=1;" vertex="1" parent="WIyWlLk6GJQsqaUBKTNV-1">
          <mxGeometry x="349" y="495" width="110" height="50" as="geometry" />
        </mxCell>
        <mxCell id="VEmv5C5mCchphOpSGsbX-26" style="edgeStyle=orthogonalEdgeStyle;rounded=0;orthogonalLoop=1;jettySize=auto;html=1;entryX=0.5;entryY=0;entryDx=0;entryDy=0;" edge="1" parent="WIyWlLk6GJQsqaUBKTNV-1" source="VEmv5C5mCchphOpSGsbX-6" target="VEmv5C5mCchphOpSGsbX-16">
          <mxGeometry relative="1" as="geometry" />
        </mxCell>
        <mxCell id="VEmv5C5mCchphOpSGsbX-6" value="匹配视图函数" style="rounded=0;whiteSpace=wrap;html=1;" vertex="1" parent="WIyWlLk6GJQsqaUBKTNV-1">
          <mxGeometry x="354" y="585" width="100" height="30" as="geometry" />
        </mxCell>
        <mxCell id="VEmv5C5mCchphOpSGsbX-15" value="是" style="text;html=1;align=center;verticalAlign=middle;resizable=0;points=[];autosize=1;strokeColor=none;fillColor=none;" vertex="1" parent="WIyWlLk6GJQsqaUBKTNV-1">
          <mxGeometry x="399" y="555" width="30" height="20" as="geometry" />
        </mxCell>
        <mxCell id="VEmv5C5mCchphOpSGsbX-19" style="edgeStyle=orthogonalEdgeStyle;rounded=0;orthogonalLoop=1;jettySize=auto;html=1;entryX=0.5;entryY=0;entryDx=0;entryDy=0;" edge="1" parent="WIyWlLk6GJQsqaUBKTNV-1" source="VEmv5C5mCchphOpSGsbX-16" target="VEmv5C5mCchphOpSGsbX-18">
          <mxGeometry relative="1" as="geometry" />
        </mxCell>
        <mxCell id="VEmv5C5mCchphOpSGsbX-16" value="从数据库提取数据" style="rounded=0;whiteSpace=wrap;html=1;" vertex="1" parent="WIyWlLk6GJQsqaUBKTNV-1">
          <mxGeometry x="349" y="655" width="110" height="30" as="geometry" />
        </mxCell>
        <mxCell id="VEmv5C5mCchphOpSGsbX-28" style="edgeStyle=orthogonalEdgeStyle;rounded=0;orthogonalLoop=1;jettySize=auto;html=1;entryX=0.5;entryY=0;entryDx=0;entryDy=0;" edge="1" parent="WIyWlLk6GJQsqaUBKTNV-1" source="VEmv5C5mCchphOpSGsbX-18" target="VEmv5C5mCchphOpSGsbX-22">
          <mxGeometry relative="1" as="geometry" />
        </mxCell>
        <mxCell id="VEmv5C5mCchphOpSGsbX-18" value="将数据嵌入前端页面" style="rounded=0;whiteSpace=wrap;html=1;" vertex="1" parent="WIyWlLk6GJQsqaUBKTNV-1">
          <mxGeometry x="344" y="725" width="120" height="30" as="geometry" />
        </mxCell>
        <mxCell id="VEmv5C5mCchphOpSGsbX-22" value="&lt;span&gt;前端数据展示&lt;/span&gt;" style="rounded=1;whiteSpace=wrap;html=1;" vertex="1" parent="WIyWlLk6GJQsqaUBKTNV-1">
          <mxGeometry x="344" y="795" width="120" height="30" as="geometry" />
        </mxCell>
      </root>
    </mxGraphModel>
  </diagram>
</mxfile>
